Coordinates
version=1
nRows=24
nColumns=24
inDegrees=yes

Units are S.I. units (second, meters, Newtons, ...)
Angles are in degrees.

endheader
time	pelvis_tilt	pelvis_list	pelvis_rotation	pelvis_tx	pelvis_ty	pelvis_tz	hip_flexion_r	hip_adduction_r	hip_rotation_r	knee_angle_r	ankle_angle_r	subtalar_angle_r	mtp_angle_r	hip_flexion_l	hip_adduction_l	hip_rotation_l	knee_angle_l	ankle_angle_l	subtalar_angle_l	mtp_angle_l	lumbar_extension	lumbar_bending	lumbar_rotation
      3.58000000	     -9.47170728	     -9.57663722	      6.30248345	     -2.57086382	     -0.01999503	      0.43183005	     20.68629204	     11.11992411	     -5.26673885	    -13.12011578	     -6.90807740	     -5.37002329	      4.90438190	     18.31639879	     -8.98927090	      5.20297427	    -61.26372028	    -26.16097402	     -7.24796346	     25.04993817	      8.55541746	      8.72781075	     -5.57646658
      3.58500000	     -9.40521055	     -9.39898849	      6.25753125	     -2.56485578	     -0.01905272	      0.43230497	     19.98117638	     11.07720520	     -5.09877150	    -12.77843664	     -6.67997689	     -5.32053501	      5.11674715	     19.11503331	     -8.72146041	      5.27584646	    -61.98800727	    -25.89578879	     -8.74776820	     24.52585167	      8.45950269	      8.50680264	     -5.42549308
      3.59000000	     -9.32365914	     -9.12030614	      6.10760878	     -2.55884979	     -0.01802770	      0.43291840	     19.23421552	     10.97495932	     -4.72144856	    -12.44723372	     -6.43966010	     -5.30880561	      5.17752907	     19.82172355	     -8.38817677	      5.23822812	    -62.58334022	    -25.44334927	     -9.81739152	     24.10623303	      8.31799013	      8.19810060	     -5.13125506
      3.59500000	     -9.25509863	     -8.82891463	      5.95396946	     -2.55287965	     -0.01700145	      0.43352834	     18.49818304	     10.85520044	     -4.33407381	    -12.10949664	     -6.22914539	     -5.32980211	      5.15985171	     20.52867217	     -8.04661554	      5.18945569	    -63.08149304	    -24.91428250	    -10.66387995	     23.78046084	      8.19082525	      7.87624406	     -4.82853525
      3.60000000	     -9.19359264	     -8.52553780	      5.75652018	     -2.54693886	     -0.01596428	      0.43416038	     17.76344006	     10.72909211	     -3.88728804	    -11.76344446	     -6.06007672	     -5.36381344	      5.10096827	     21.21757533	     -7.71327238	      5.08091151	    -63.48246725	    -24.32662064	    -11.33675984	     23.47348906	      8.06471434	      7.55445043	     -4.45385839
      3.60500000	     -9.16780997	     -8.15144378	      5.54955272	     -2.54103937	     -0.01492205	      0.43480505	     17.06838185	     10.52084370	     -3.41612316	    -11.43221430	     -5.88676870	     -5.42234256	      5.02051271	     21.90701549	     -7.30530604	      4.95279715	    -63.75710989	    -23.66370407	    -11.78646748	     23.32710860	      7.96961215	      7.15496042	     -4.08790075
      3.61000000	     -9.15582969	     -7.73906445	      5.32649254	     -2.53515264	     -0.01386302	      0.43547263	     16.38105956	     10.27109984	     -2.91018418	    -11.09185985	     -5.74660643	     -5.52943048	      4.89216870	     22.57863191	     -6.87020255	      4.78599494	    -63.91793383	    -22.94241570	    -12.06235894	     23.21902611	      7.88966384	      6.71605508	     -3.70418820
      3.61500000	     -9.18223111	     -7.27933319	      5.07313700	     -2.52933538	     -0.01282796	      0.43615367	     15.75178925	      9.95988934	     -2.41619636	    -10.77926510	     -5.56475641	     -5.55553292	      4.82109879	     23.25980335	     -6.39227120	      4.58633148	    -63.96049160	    -22.22117461	    -12.21507206	     23.27790832	      7.83945572	      6.23316341	     -3.26569272
      3.62000000	     -9.21719609	     -6.78248288	      4.79050738	     -2.52354483	     -0.01178449	      0.43687604	     15.13199250	      9.61017661	     -1.88249889	    -10.46662713	     -5.40258285	     -5.60583802	      4.71419379	     23.91391153	     -5.89536292	      4.33800760	    -63.88822985	    -21.46036660	    -12.24468176	     23.36122106	      7.79521114	      5.71680260	     -2.81644325
      3.62500000	     -9.26584869	     -6.26240498	      4.51568933	     -2.51782679	     -0.01076029	      0.43755638	     14.54790936	      9.21788157	     -1.39723390	    -10.17556136	     -5.24764215	     -5.64063738	      4.62281635	     24.56459187	     -5.37281495	      4.07811673	    -63.71247387	    -20.69295121	    -12.21770256	     23.47494362	      7.76468261	      5.17891106	     -2.37653700
      3.63000000	     -9.31628981	     -5.74441179	      4.17819469	     -2.51205830	     -0.00976301	      0.43832753	     13.93871516	      8.83538318	     -0.81524322	     -9.83328264	     -5.08439456	     -5.63498845	      4.53132282	     25.18228937	     -4.89584849	      3.75446118	    -63.43985886	    -19.91737024	    -12.05981879	     23.60507528	      7.74558850	      4.65468468	     -1.86818793
      3.63500000	     -9.37268822	     -5.21563729	      3.84736990	     -2.50635642	     -0.00880631	      0.43906355	     13.35893697	      8.42450552	     -0.29795574	     -9.50987351	     -4.92212965	     -5.60886627	      4.46672356	     25.78975118	     -4.40571425	      3.43016510	    -63.07181506	    -19.16262195	    -11.89928874	     23.72862633	      7.73292419	      4.12216441	     -1.38119985
      3.64000000	     -9.43287441	     -4.68825299	      3.50977997	     -2.50068460	     -0.00790784	      0.43978309	     12.80094165	      8.00340218	      0.16675215	     -9.19857529	     -4.75138796	     -5.55006173	      4.43571300	     26.38107731	     -3.92422811	      3.09436903	    -62.61133352	    -18.44167073	    -11.75982524	     23.84750235	      7.72763392	      3.59740152	     -0.89769958
      3.64500000	     -9.47839244	     -4.18972010	      3.13941217	     -2.49498576	     -0.00706136	      0.44050717	     12.20981530	      7.60587950	      0.67682532	     -8.84085501	     -4.57694770	     -5.43543668	      4.42207892	     26.93987510	     -3.49751517	      2.73689305	    -62.07820774	    -17.76946763	    -11.59077476	     23.94649993	      7.72272188	      3.11449925	     -0.38158996
      3.65000000	     -9.51310191	     -3.70933778	      2.75722653	     -2.48929908	     -0.00629059	      0.44120767	     11.62492608	      7.21868870	      1.14683356	     -8.49737809	     -4.39891757	     -5.31016046	      4.42459774	     27.46894054	     -3.10272431	      2.36493031	    -61.46669932	    -17.12439730	    -11.46750375	     24.01357273	      7.71224164	      2.65961637	      0.13121629
      3.65500000	     -9.53713028	     -3.24891234	      2.36507528	     -2.48360257	     -0.00560303	      0.44187144	     11.03780657	      6.84306594	      1.59564099	     -8.15701893	     -4.20805761	     -5.18074875	      4.43513142	     27.96964432	     -2.73956500	      1.98334548	    -60.78363423	    -16.51766337	    -11.38739855	     24.04282718	      7.70071289	      2.23869653	      0.63644257
      3.66000000	     -9.54620473	     -2.83512078	      1.96942232	     -2.47788085	     -0.00499839	      0.44254386	     10.43654367	      6.50909542	      2.04235332	     -7.80798383	     -4.03014264	     -5.03434364	      4.43942816	     28.44294670	     -2.43905752	      1.60936004	    -60.03891464	    -15.95710280	    -11.35233259	     24.02365050	      7.68577924	      1.85798598	      1.13650519
      3.66500000	     -9.52907708	     -2.45062191	      1.54334671	     -2.47213705	     -0.00447292	      0.44316871	      9.81007077	      6.19918862	      2.51110749	     -7.45564757	     -3.84289601	     -4.89334165	      4.42777420	     28.87212924	     -2.19203108	      1.20403659	    -59.23900438	    -15.42956758	    -11.34523999	     23.94487894	      7.65299103	      1.53516981	      1.65919624
      3.67000000	     -9.48318728	     -2.10877150	      1.09839492	     -2.46636869	     -0.00402365	      0.44376276	      9.15278046	      5.92626117	      3.00609061	     -7.09632544	     -3.66378059	     -4.76472450	      4.38475100	     29.25969567	     -2.00666506	      0.79074206	    -58.39455749	    -14.94412945	    -11.36527864	     23.78399548	      7.59997282	      1.26860422	      2.18916633
      3.67500000	     -9.42815545	     -1.79548799	      0.66195014	     -2.46060172	     -0.00367281	      0.44433090	      8.50001846	      5.67473998	      3.49594768	     -6.75705607	     -3.48236060	     -4.67927444	      4.31306686	     29.62600031	     -1.85660538	      0.38236432	    -57.49631201	    -14.47119145	    -11.42439926	     23.54893894	      7.54086182	      1.03043742	      2.68936148
      3.68000000	     -9.37518455	     -1.50869851	      0.22355910	     -2.45481914	     -0.00341723	      0.44486024	      7.86266156	      5.44236404	      3.96593623	     -6.43486092	     -3.30483242	     -4.62116734	      4.22603597	     29.98145330	     -1.74053931	     -0.02064941	    -56.54774391	    -14.03611923	    -11.50309200	     23.26546259	      7.49230501	      0.82621730	      3.17497045
      3.68500000	     -9.32720509	     -1.23917503	     -0.20781403	     -2.44904532	     -0.00325193	      0.44532885	      7.25331692	      5.21716476	      4.42526347	     -6.14943168	     -3.12131409	     -4.59510916	      4.13191182	     30.32598465	     -1.64056147	     -0.41008477	    -55.54056995	    -13.62228386	    -11.60543213	     22.94828357	      7.45174372	      0.64840017	      3.63136508
      3.69000000	     -9.24789269	     -1.01421885	     -0.65956356	     -2.44328492	     -0.00314921	      0.44581875	      6.60719299	      5.03416655	      4.92856818	     -5.85074632	     -2.95082610	     -4.58580790	      4.00273707	     30.63266713	     -1.61254457	     -0.82141281	    -54.50739789	    -13.25291935	    -11.70623383	     22.53777916	      7.37603957	      0.51671333	      4.11544961
      3.69500000	     -9.19261431	     -0.79046073	     -1.10522335	     -2.43753141	     -0.00313242	      0.44628142	      6.01877200	      4.84607725	      5.38800610	     -5.60435704	     -2.77456111	     -4.59755699	      3.88399139	     30.93877699	     -1.58184926	     -1.20868156	    -53.40244647	    -12.89341205	    -11.80323032	     22.13437222	      7.32639381	      0.38635541	      4.55811501
